<mxfile host="app.diagrams.net" modified="2022-02-08T15:45:40.921Z" agent="5.0 (Macintosh; Intel Mac OS X 10_14_6) AppleWebKit/537.36 (KHTML, like Gecko) Chrome/98.0.4758.80 Safari/537.36" etag="QFIVge13mlO5LuJityGZ" version="16.4.7" type="github">
  <diagram id="kgpKYQtTHZ0yAKxKKP6v" name="Page-1">
    <mxGraphModel dx="946" dy="557" grid="1" gridSize="10" guides="1" tooltips="1" connect="1" arrows="1" fold="1" page="1" pageScale="1" pageWidth="850" pageHeight="1100" math="0" shadow="0">
      <root>
        <mxCell id="0" />
        <mxCell id="1" parent="0" />
        <mxCell id="hFLyXq-MNpYbHPnILwqp-13" style="edgeStyle=orthogonalEdgeStyle;rounded=0;orthogonalLoop=1;jettySize=auto;html=1;exitX=1;exitY=0.3333333333333333;exitDx=0;exitDy=0;exitPerimeter=0;" edge="1" parent="1" source="hFLyXq-MNpYbHPnILwqp-7" target="hFLyXq-MNpYbHPnILwqp-11">
          <mxGeometry relative="1" as="geometry">
            <mxPoint x="110" y="160" as="targetPoint" />
            <Array as="points">
              <mxPoint x="60" y="100" />
            </Array>
          </mxGeometry>
        </mxCell>
        <mxCell id="hFLyXq-MNpYbHPnILwqp-7" value="Management&lt;br&gt;" style="shape=umlActor;verticalLabelPosition=bottom;verticalAlign=top;html=1;outlineConnect=0;" vertex="1" parent="1">
          <mxGeometry x="30" y="10" width="30" height="60" as="geometry" />
        </mxCell>
        <mxCell id="hFLyXq-MNpYbHPnILwqp-11" value=":Management Screen" style="shape=umlLifeline;perimeter=lifelinePerimeter;container=1;collapsible=0;recursiveResize=0;rounded=0;shadow=0;strokeWidth=1;" vertex="1" parent="1">
          <mxGeometry x="120" y="10" width="160" height="300" as="geometry" />
        </mxCell>
        <mxCell id="hFLyXq-MNpYbHPnILwqp-12" value="" style="points=[];perimeter=orthogonalPerimeter;rounded=0;shadow=0;strokeWidth=1;" vertex="1" parent="hFLyXq-MNpYbHPnILwqp-11">
          <mxGeometry x="74" y="80" width="10" height="30" as="geometry" />
        </mxCell>
        <mxCell id="hFLyXq-MNpYbHPnILwqp-14" value="Login to System" style="text;html=1;align=center;verticalAlign=middle;resizable=0;points=[];autosize=1;strokeColor=none;fillColor=none;" vertex="1" parent="hFLyXq-MNpYbHPnILwqp-11">
          <mxGeometry x="-60" y="90" width="100" height="20" as="geometry" />
        </mxCell>
        <mxCell id="hFLyXq-MNpYbHPnILwqp-24" value="1. Create Message" style="text;html=1;strokeColor=none;fillColor=none;align=center;verticalAlign=middle;whiteSpace=wrap;rounded=0;" vertex="1" parent="hFLyXq-MNpYbHPnILwqp-11">
          <mxGeometry x="99" y="107" width="60" height="30" as="geometry" />
        </mxCell>
        <mxCell id="hFLyXq-MNpYbHPnILwqp-15" value=":Database" style="shape=umlLifeline;perimeter=lifelinePerimeter;container=1;collapsible=0;recursiveResize=0;rounded=0;shadow=0;strokeWidth=1;" vertex="1" parent="1">
          <mxGeometry x="297" y="10" width="100" height="330" as="geometry" />
        </mxCell>
        <mxCell id="hFLyXq-MNpYbHPnILwqp-16" value="" style="points=[];perimeter=orthogonalPerimeter;rounded=0;shadow=0;strokeWidth=1;" vertex="1" parent="hFLyXq-MNpYbHPnILwqp-15">
          <mxGeometry x="45" y="100" width="10" height="50" as="geometry" />
        </mxCell>
        <mxCell id="hFLyXq-MNpYbHPnILwqp-17" value=":Cloud Service" style="shape=umlLifeline;perimeter=lifelinePerimeter;container=1;collapsible=0;recursiveResize=0;rounded=0;shadow=0;strokeWidth=1;" vertex="1" parent="1">
          <mxGeometry x="418" y="10" width="100" height="300" as="geometry" />
        </mxCell>
        <mxCell id="hFLyXq-MNpYbHPnILwqp-18" value="" style="points=[];perimeter=orthogonalPerimeter;rounded=0;shadow=0;strokeWidth=1;" vertex="1" parent="hFLyXq-MNpYbHPnILwqp-17">
          <mxGeometry x="45" y="120" width="10" height="50" as="geometry" />
        </mxCell>
        <mxCell id="hFLyXq-MNpYbHPnILwqp-28" value="" style="verticalAlign=bottom;endArrow=block;shadow=0;strokeWidth=1;" edge="1" parent="hFLyXq-MNpYbHPnILwqp-17" target="hFLyXq-MNpYbHPnILwqp-15">
          <mxGeometry relative="1" as="geometry">
            <mxPoint x="54" y="230" as="sourcePoint" />
            <mxPoint x="-21" y="230" as="targetPoint" />
          </mxGeometry>
        </mxCell>
        <mxCell id="hFLyXq-MNpYbHPnILwqp-19" value=":Messaging Service" style="shape=umlLifeline;perimeter=lifelinePerimeter;container=1;collapsible=0;recursiveResize=0;rounded=0;shadow=0;strokeWidth=1;" vertex="1" parent="1">
          <mxGeometry x="550" y="10" width="110" height="320" as="geometry" />
        </mxCell>
        <mxCell id="hFLyXq-MNpYbHPnILwqp-20" value="" style="points=[];perimeter=orthogonalPerimeter;rounded=0;shadow=0;strokeWidth=1;" vertex="1" parent="hFLyXq-MNpYbHPnILwqp-19">
          <mxGeometry x="45" y="180" width="10" height="140" as="geometry" />
        </mxCell>
        <mxCell id="hFLyXq-MNpYbHPnILwqp-41" value="" style="verticalAlign=bottom;endArrow=block;entryX=0;entryY=0;shadow=0;strokeWidth=1;" edge="1" parent="hFLyXq-MNpYbHPnILwqp-19">
          <mxGeometry x="0.3529" y="49" relative="1" as="geometry">
            <mxPoint x="-125" y="273" as="sourcePoint" />
            <mxPoint x="45" y="273" as="targetPoint" />
            <Array as="points">
              <mxPoint x="-60" y="273" />
            </Array>
            <mxPoint as="offset" />
          </mxGeometry>
        </mxCell>
        <mxCell id="hFLyXq-MNpYbHPnILwqp-22" value="Users" style="shape=umlActor;verticalLabelPosition=bottom;verticalAlign=top;html=1;outlineConnect=0;" vertex="1" parent="1">
          <mxGeometry x="780" y="10" width="30" height="60" as="geometry" />
        </mxCell>
        <mxCell id="hFLyXq-MNpYbHPnILwqp-23" value="" style="endArrow=classic;html=1;rounded=0;" edge="1" parent="1">
          <mxGeometry width="50" height="50" relative="1" as="geometry">
            <mxPoint x="199.5" y="148" as="sourcePoint" />
            <mxPoint x="346.5" y="148" as="targetPoint" />
            <Array as="points">
              <mxPoint x="200" y="148" />
              <mxPoint x="290" y="148" />
            </Array>
          </mxGeometry>
        </mxCell>
        <mxCell id="hFLyXq-MNpYbHPnILwqp-25" value="2. Store Images to Cloud" style="text;html=1;strokeColor=none;fillColor=none;align=center;verticalAlign=middle;whiteSpace=wrap;rounded=0;" vertex="1" parent="1">
          <mxGeometry x="380" y="100" width="60" height="48" as="geometry" />
        </mxCell>
        <mxCell id="hFLyXq-MNpYbHPnILwqp-26" value="" style="endArrow=classic;html=1;rounded=0;" edge="1" parent="1">
          <mxGeometry width="50" height="50" relative="1" as="geometry">
            <mxPoint x="316.5" y="149" as="sourcePoint" />
            <mxPoint x="463.5" y="149" as="targetPoint" />
            <Array as="points">
              <mxPoint x="317" y="149" />
              <mxPoint x="407" y="149" />
            </Array>
          </mxGeometry>
        </mxCell>
        <mxCell id="hFLyXq-MNpYbHPnILwqp-29" value="&lt;span style=&quot;font-size: 11px ; background-color: rgb(255 , 255 , 255)&quot;&gt;3. Daemon Service will&lt;/span&gt;&lt;br style=&quot;padding: 0px ; margin: 0px ; font-size: 11px&quot;&gt;&lt;span style=&quot;font-size: 11px ; background-color: rgb(255 , 255 , 255)&quot;&gt;create all&amp;nbsp;entries to&lt;/span&gt;&lt;br style=&quot;padding: 0px ; margin: 0px ; font-size: 11px&quot;&gt;&lt;span style=&quot;font-size: 11px ; background-color: rgb(255 , 255 , 255)&quot;&gt;be sent to user&lt;/span&gt;" style="text;html=1;align=center;verticalAlign=middle;resizable=0;points=[];autosize=1;strokeColor=none;fillColor=none;" vertex="1" parent="1">
          <mxGeometry x="345" y="190" width="130" height="50" as="geometry" />
        </mxCell>
        <mxCell id="hFLyXq-MNpYbHPnILwqp-32" value="&lt;span style=&quot;font-size: 11px ; background-color: rgb(255 , 255 , 255)&quot;&gt;4. Messaging Service Producer will &lt;br&gt;fetch all entries to be sent to user&amp;nbsp;&amp;nbsp;&lt;/span&gt;" style="text;html=1;align=center;verticalAlign=middle;resizable=0;points=[];autosize=1;strokeColor=none;fillColor=none;" vertex="1" parent="1">
          <mxGeometry x="422" y="245" width="190" height="30" as="geometry" />
        </mxCell>
        <mxCell id="hFLyXq-MNpYbHPnILwqp-34" value="" style="verticalAlign=bottom;endArrow=block;entryX=0;entryY=1;shadow=0;strokeWidth=1;entryDx=0;entryDy=0;entryPerimeter=0;" edge="1" parent="1" target="hFLyXq-MNpYbHPnILwqp-22">
          <mxGeometry relative="1" as="geometry">
            <mxPoint x="610" y="290" as="sourcePoint" />
            <mxPoint x="780" y="290" as="targetPoint" />
            <Array as="points">
              <mxPoint x="675" y="290" />
            </Array>
          </mxGeometry>
        </mxCell>
        <mxCell id="hFLyXq-MNpYbHPnILwqp-35" value="&lt;span style=&quot;font-size: 11px ; background-color: rgb(255 , 255 , 255)&quot;&gt;5. Messaging Service Consumer will &lt;br&gt;send messages to users&amp;nbsp;&amp;nbsp;&lt;/span&gt;" style="text;html=1;align=center;verticalAlign=middle;resizable=0;points=[];autosize=1;strokeColor=none;fillColor=none;" vertex="1" parent="1">
          <mxGeometry x="621" y="253" width="190" height="30" as="geometry" />
        </mxCell>
      </root>
    </mxGraphModel>
  </diagram>
</mxfile>
